#!OML:ASF I:\Actors\actors\Patient Classification 1\Patient 1\Session 1\Subject1.ASF
:FULLY-SPECIFIED
:DEGREES
760
root -1.59551 17.6152 8.41081 13.1713 3.65889 -7.85794
lowerback 5.93492 1.96977 11.8807
upperback -9.30695 4.52601 2.93692
thorax -13.0447 1.18458 -4.10701
lowerneck -8.20729 -15.6716 -10.7945
upperneck 6.96074 -20.8069 9.62882
head 5.53005 -10.0249 2.77912
rclavicle 9.83984e-015 -2.62396e-014
rhumerus 48.5699 -26.3692 -54.2262
rradius 34.5337
rwrist 40.7972
rhand -15.856 -38.0156
rfingers 7.12502
rthumb 10.3391 -67.7414
lclavicle 9.83984e-015 -2.62396e-014
lhumerus -48.1185 -15.7481 93.0983
lradius 71.5118
lwrist 11.8292
lhand -22.9982 -20.2311
lfingers 7.12502
lthumb 3.44482 9.72084
rfemur -5.68712 21.1437 27.0419
rtibia 0.457724
rfoot -11.6563 -25.424
rtoes 7.89867
lfemur 1.38744 -57.3847 -6.01985
ltibia -3.71849
lfoot -46.2425 59.0618
ltoes 19.663
761
root -1.60126 17.617 8.41325 13.1867 3.80182 -7.92206
lowerback 6.63898 1.83074 11.5691
upperback -9.70329 4.49831 3.24565
thorax -14.0189 1.15206 -3.62853
lowerneck -7.72874 -15.4978 -10.8419
upperneck 6.69777 -20.541 9.24114
head 5.30594 -9.93937 2.75749
rclavicle 2.59414e-014 -5.88403e-014
rhumerus 47.5561 -25.9824 -53.1769
rradius 35.7769
rwrist 41.4115
rhand -18.8407 -40.3916
rfingers 7.12502
rthumb 7.45896 -70.2401
lclavicle 2.59414e-014 -5.88403e-014
lhumerus -49.0456 -15.2327 93.5513
lradius 71.5472
lwrist 11.9624
lhand -23.6915 -20.6394
lfingers 7.12502
lthumb 2.77531 9.32233
rfemur -5.70962 20.9671 27.1427
rtibia 0.475687
rfoot -11.6558 -25.3973
rtoes 7.75227
lfemur 1.38411 -57.908 -5.92877
ltibia -3.64931
lfoot -47.0584 59.2359
ltoes 19.9739
762
root -1.60195 17.6202 8.41513 13.3558 3.96734 -7.87677
lowerback 6.18545 1.83408 11.8517
upperback -9.3929 4.41981 3.17952
thorax -13.3479 1.13156 -3.81985
lowerneck -8.06688 -15.5039 -10.4961
upperneck 5.97266 -20.4844 9.21013
head 5.09002 -9.90512 2.717
rclavicle 1.64991e-014 -1.19271e-014
rhumerus 47.8874 -26.8892 -53.0525
rradius 36.8794
rwrist 42.1798
rhand -22.2576 -42.2354
rfingers 7.12502
rthumb 4.16 -72.1745
lclavicle 1.64991e-014 -1.19271e-014
lhumerus -48.6322 -15.4424 93.406
lradius 71.5598
lwrist 12.1976
lhand -24.4112 -20.8327
lfingers 7.12502
lthumb 2.08027 9.13692
rfemur -5.87529 20.9603 27.0344
rtibia 0.431618
rfoot -11.7171 -25.5342
rtoes 7.89067
lfemur 1.01292 -58.373 -5.64721
ltibia -3.61859
lfoot -47.4284 59.5492
ltoes 19.9077
763
root -1.5975 17.6232 8.41421 13.6504 4.21844 -7.83763
lowerback 6.89165 1.62901 11.6476
upperback -9.9714 4.34618 3.52574
thorax -14.5602 1.05342 -3.3434
lowerneck -7.48579 -15.2335 -10.3749
upperneck 5.69714 -20.0837 8.47776
head 4.78221 -9.76683 2.60191
rclavicle 2.38542e-014 -1.11319e-014
rhumerus 47.5164 -26.4733 -51.9311
rradius 37.6591
rwrist 43.7354
rhand -25.2159 -43.4283
rfingers 7.12502
rthumb 1.30308 -73.4041
lclavicle 2.38542e-014 -1.11319e-014
lhumerus -50.0682 -14.8164 93.9523
lradius 71.8808
lwrist 12.2923
lhand -24.8417 -21.1658
lfingers 7.12502
lthumb 1.66449 8.80742
rfemur -6.16147 21.0736 26.8746
rtibia 0.314854
rfoot -11.7446 -25.8642
rtoes 8.11257
lfemur 0.324244 -58.9744 -5.06068
ltibia -3.61252
lfoot -48.0287 59.8759
ltoes 20.1058
764
root -1.59047 17.6263 8.41082 13.9805 4.52053 -7.76058
lowerback 6.83179 1.52921 11.9259
upperback -10.0104 4.25533 3.60801
thorax -14.5841 0.984797 -3.38325
lowerneck -7.29407 -15.1332 -10.1464
upperneck 4.91334 -19.9086 8.28044
head 4.45005 -9.70115 2.58628
rclavicle 2.31584e-014 -1.98785e-014
rhumerus 48.0945 -27.0209 -51.2527
rradius 37.9789
rwrist 46.6502
rhand -27.4432 -44.1683
rfingers 7.12502
rthumb -0.84813 -74.1464
lclavicle 2.31584e-014 -1.98785e-014
lhumerus -50.3781 -14.7974 94.0477
lradius 72.0737
lwrist 12.4067
lhand -25.3997 -21.6817
lfingers 7.12502
lthumb 1.12553 8.2951
rfemur -6.4675 21.3412 26.6601
rtibia 0.15967
rfoot -11.6942 -26.4365
rtoes 8.3854
lfemur -0.494547 -59.6999 -4.39035
ltibia -3.57941
lfoot -49.0235 60.0757
ltoes 20.683
765
root -1.58167 17.6304 8.40489 14.2297 4.83834 -7.57524
lowerback 6.13435 1.50479 12.5901
upperback -9.47276 4.09886 3.41836
thorax -13.4667 0.912242 -3.9025
lowerneck -8.04958 -15.0976 -9.54004
upperneck 4.29992 -19.8125 8.36008
head 4.32237 -9.6251 2.51425
rclavicle -1.5704e-014 1.03368e-014
rhumerus 49.4341 -28.3683 -50.8952
rradius 37.978
rwrist 49.598
rhand -29.1666 -44.4414
rfingers 7.12502
rthumb -2.51258 -74.4063
lclavicle -1.5704e-014 1.03368e-014
lhumerus -49.5368 -15.2816 93.6424
lradius 72.1003
lwrist 12.4432
lhand -26.1454 -22.2511
lfingers 7.12502
lthumb 0.405276 7.72825
rfemur -6.63464 21.8609 26.3474
rtibia -0.044221
rfoot -11.7201 -27.2946
rtoes 9.00057
lfemur -1.30846 -60.04 -3.86226
ltibia -3.55104
lfoot -49.1139 60.0917
ltoes 20.8216
766
root -1.56972 17.6341 8.39365 14.4132 5.20381 -7.33611
lowerback 7.12914 1.21192 12.492
upperback -9.99223 3.97117 3.73326
thorax -14.7972 0.786571 -3.5105
lowerneck -7.87305 -14.7437 -9.48199
upperneck 4.59988 -19.3094 7.62361
head 4.2626 -9.41215 2.35858
rclavicle -5.76476e-015 3.33958e-014
rhumerus 49.3911 -27.8181 -48.9791
rradius 37.9971
rwrist 51.2123
rhand -30.6025 -44.095
rfingers 7.12502
rthumb -3.89931 -74.0391
lclavicle -5.76476e-015 3.33958e-014
lhumerus -50.8906 -14.6595 94.117
lradius 72.3933
lwrist 12.3862
lhand -26.6657 -22.8403
lfingers 7.12502
lthumb -0.0971735 7.13942
rfemur -6.71058 22.4682 25.9846
rtibia -0.318307
rfoot -11.7461 -28.3313
rtoes 9.44045
lfemur -2.21906 -59.8102 -3.34555
ltibia -3.55271
lfoot -47.5687 60.0675
ltoes 19.9956
767
root -1.55502 17.6366 8.37689 14.5593 5.52197 -7.10099
lowerback 7.4408 1.07259 12.8664
upperback -9.92892 3.89341 3.79784
thorax -14.9322 0.707098 -3.63807
lowerneck -7.66819 -14.7522 -9.30404
upperneck 3.44245 -19.2586 7.37191
head 3.82667 -9.41141 2.33588
rclavicle -1.63997e-014 -5.88403e-014
rhumerus 50.07 -28.2907 -47.5749
rradius 37.9041
rwrist 52.7201
rhand -32.1498 -43.1095
rfingers 7.12502
rthumb -5.39341 -73.0209
lclavicle -1.63997e-014 -5.88403e-014
lhumerus -51.0714 -14.6079 94.2031
lradius 72.5621
lwrist 12.5526
lhand -27.1021 -23.2687
lfingers 7.12502
lthumb -0.518655 6.7104
rfemur -6.79737 23.0613 25.6249
rtibia -0.52283
rfoot -11.7688 -29.3532
rtoes 9.50028
lfemur -3.05907 -59.4661 -2.91157
ltibia -3.56657
lfoot -45.8537 59.9809
ltoes 19.2248
768
root -1.53901 17.6403 8.35434 14.6307 5.76435 -6.91132
lowerback 7.12482 1.06114 13.6705
upperback -9.26735 3.8276 3.65471
thorax -13.8933 0.667634 -4.21967
lowerneck -8.07506 -14.6684 -9.08045
upperneck 2.2082 -19.0821 7.7525
head 3.51751 -9.30795 2.45445
rclavicle -5.26779e-015 -1.11319e-014
rhumerus 51.4785 -29.7792 -46.8205
rradius 37.6026
rwrist 55.0624
rhand -33.9196 -41.9681
rfingers 7.12502
rthumb -7.10199 -71.829
lclavicle -5.26779e-015 -1.11319e-014
lhumerus -49.9996 -14.9674 93.8199
lradius 72.4995
lwrist 12.5863
lhand -27.5191 -23.6935
lfingers 7.12502
lthumb -0.921447 6.28426
rfemur -6.89133 23.602 25.3301
rtibia -0.51552
rfoot -11.9599 -30.196
rtoes 9.87217
lfemur -3.72569 -59.1596 -2.60199
ltibia -3.54449
lfoot -44.6246 59.7187
ltoes 19.0214
769
root -1.52108 17.6444 8.32738 14.6614 5.97799 -6.82479
lowerback 8.20622 0.831866 13.8896
upperback -9.48786 3.83273 3.99626
thorax -14.8886 0.597233 -3.98801
lowerneck -7.66623 -14.5142 -8.92771
upperneck 1.30617 -18.8333 7.15203
head 3.08357 -9.22186 2.36312
rclavicle 1.30701e-014 -4.45278e-014
rhumerus 51.6195 -29.5591 -44.7445
rradius 37.3648
rwrist 57.7848
rhand -35.3368 -40.8663
rfingers 7.12502
rthumb -8.46979 -70.6764
lclavicle 1.30701e-014 -4.45278e-014
lhumerus -50.7608 -14.2897 94.1467
lradius 72.6369
lwrist 12.3804
lhand -27.9756 -24.2749
lfingers 7.12502
lthumb -1.36231 5.70045
rfemur -7.01171 24.0245 25.1413
rtibia -0.413788
rfoot -12.1786 -30.8525
rtoes 10.3837
lfemur -4.32692 -58.6762 -2.25541
ltibia -3.54198
lfoot -43.2159 59.3898
ltoes 18.7385
770
root -1.50112 17.6483 8.30034 14.7077 6.17382 -6.83485
lowerback 8.13396 0.792033 14.7668
upperback -8.95146 3.82218 4.00493
thorax -14.1648 0.568284 -4.45552
lowerneck -8.40848 -14.1052 -8.10973
upperneck 0.762826 -18.2438 6.36847
head 3.16041 -8.94697 2.28478
rclavicle 4.5472e-015 -3.97569e-014
rhumerus 51.9109 -30.4094 -42.704
rradius 37.2524
rwrist 60.7984
rhand -36.3081 -39.763
rfingers 7.12502
rthumb -9.40709 -69.5331
lclavicle 4.5472e-015 -3.97569e-014
lhumerus -50.1352 -14.5261 93.9287
lradius 72.8126
lwrist 12.5733
lhand -28.5889 -24.7322
lfingers 7.12502
lthumb -1.9547 5.23855
rfemur -7.15054 24.4909 25.0299
rtibia -0.399306
rfoot -12.298 -31.5455
rtoes 10.6392
lfemur -4.84522 -58.3342 -1.85067
ltibia -3.61561
lfoot -42.1899 59.2249
ltoes 18.4634
771
root -1.4811 17.6546 8.27612 14.847 6.4 -6.77826
lowerback 8.79188 0.649405 15.1026
upperback -9.05558 3.8656 4.24596
thorax -14.7269 0.527047 -4.39067
lowerneck -8.15535 -13.7571 -8.00233
upperneck 0.350479 -17.7733 6.03887
head 2.88646 -8.72958 2.24236
rclavicle -4.57826e-015 6.52014e-014
rhumerus 50.8003 -29.9739 -39.3237
rradius 37.5512
rwrist 63.0299
rhand -37.1449 -39.181
rfingers 7.12502
rthumb -10.2144 -68.913
lclavicle -4.57826e-015 6.52014e-014
lhumerus -50.7909 -14.3821 94.1968
lradius 73.2277
lwrist 12.7737
lhand -29.0912 -25.232
lfingers 7.12502
lthumb -2.43982 4.73382
rfemur -7.33414 25.1034 24.7956
rtibia -0.471859
rfoot -12.4774 -32.3887
rtoes 11.1741
lfemur -5.53665 -57.9931 -1.36511
ltibia -3.69704
lfoot -40.9826 59.1107
ltoes 17.9513
772
root -1.46292 17.6619 8.25788 15.1244 6.60551 -6.5608
lowerback 9.47882 0.511698 15.0958
upperback -9.37013 3.90365 4.4711
thorax -15.5848 0.490623 -4.15114
lowerneck -7.73824 -13.3791 -7.76974
upperneck 0.0693618 -17.2884 5.51538
head 2.59705 -8.5103 2.12527
rclavicle -2.8302e-014 -3.02153e-014
rhumerus 49.1158 -29.1486 -35.9295
rradius 38.3683
rwrist 64.3608
rhand -37.9623 -39.4195
rfingers 7.12502
rthumb -11.0029 -69.1111
lclavicle -2.8302e-014 -3.02153e-014
lhumerus -51.778 -14.215 94.5541
lradius 73.648
lwrist 12.9351
lhand -29.3102 -25.9553
lfingers 7.12502
lthumb -2.65126 4.00801
rfemur -7.59437 25.8605 24.3156
rtibia -0.572319
rfoot -12.9077 -33.3193
rtoes 12.2905
lfemur -6.44902 -57.5678 -0.878502
ltibia -3.7438
lfoot -39.4721 58.9429
ltoes 17.1587
773
root -1.44686 17.6678 8.2448 15.4381 6.75814 -6.24548
lowerback 9.47332 0.476366 15.1688
upperback -9.30122 3.8575 4.47524
thorax -15.5022 0.469861 -4.17751
lowerneck -7.86921 -13.1653 -7.40461
upperneck -0.267265 -17.0029 5.232
head 2.41829 -8.3727 2.00838
rclavicle 1.16631e-014 -2.54444e-014
rhumerus 47.4146 -28.9605 -33.2813
rradius 39.8353
rwrist 64.3955
rhand -38.7308 -40.4405
rfingers 7.12502
rthumb -11.744 -70.0913
lclavicle 1.16631e-014 -2.54444e-014
lhumerus -51.9573 -14.4053 94.5371
lradius 73.9298
lwrist 12.9922
lhand -29.5372 -26.8116
lfingers 7.12502
lthumb -2.8705 3.1488
rfemur -7.83512 26.7404 23.7
rtibia -0.781282
rfoot -13.3346 -34.3807
rtoes 13.3815
lfemur -7.28645 -57.6582 -0.526229
ltibia -3.74937
lfoot -39.0181 58.981
ltoes 16.8618
